<svg xmlns="http://www.w3.org/2000/svg" viewBox="0 0 13 13" width="26" height="26" shape-rendering="crispEdges"><rect x="6" y="0" width="1" height="1" fill="#16121c"/><rect x="5" y="1" width="1" height="1" fill="#16121c"/><rect x="6" y="1" width="1" height="1" fill="#ffe070"/><rect x="7" y="1" width="1" height="1" fill="#16121c"/><rect x="4" y="2" width="1" height="1" fill="#16121c"/><rect x="5" y="2" width="1" height="1" fill="#ffe070"/><rect x="6" y="2" width="1" height="1" fill="#ff5030"/><rect x="7" y="2" width="1" height="1" fill="#ffe070"/><rect x="8" y="2" width="1" height="1" fill="#16121c"/><rect x="4" y="3" width="1" height="1" fill="#16121c"/><rect x="5" y="3" width="1" height="1" fill="#ffe070"/><rect x="6" y="3" width="1" height="1" fill="#ff5030"/><rect x="7" y="3" width="1" height="1" fill="#ffe070"/><rect x="8" y="3" width="1" height="1" fill="#16121c"/><rect x="5" y="4" width="1" height="1" fill="#16121c"/><rect x="6" y="4" width="1" height="1" fill="#ffe070"/><rect x="7" y="4" width="1" height="1" fill="#16121c"/><rect x="5" y="5" width="3" height="1" fill="#16121c"/><rect x="4" y="6" width="1" height="1" fill="#16121c"/><rect x="5" y="6" width="1" height="1" fill="#a29e98"/><rect x="6" y="6" width="1" height="1" fill="#dcd8d0"/><rect x="7" y="6" width="1" height="1" fill="#ffffff"/><rect x="8" y="6" width="1" height="1" fill="#16121c"/><rect x="4" y="7" width="1" height="1" fill="#16121c"/><rect x="5" y="7" width="1" height="1" fill="#a29e98"/><rect x="6" y="7" width="1" height="1" fill="#dcd8d0"/><rect x="7" y="7" width="1" height="1" fill="#ffffff"/><rect x="8" y="7" width="1" height="1" fill="#16121c"/><rect x="4" y="8" width="1" height="1" fill="#16121c"/><rect x="5" y="8" width="1" height="1" fill="#a29e98"/><rect x="6" y="8" width="1" height="1" fill="#dcd8d0"/><rect x="7" y="8" width="1" height="1" fill="#a29e98"/><rect x="8" y="8" width="1" height="1" fill="#16121c"/><rect x="3" y="9" width="2" height="1" fill="#16121c"/><rect x="5" y="9" width="2" height="1" fill="#a29e98"/><rect x="7" y="9" width="1" height="1" fill="#ffffff"/><rect x="8" y="9" width="2" height="1" fill="#16121c"/><rect x="2" y="10" width="1" height="1" fill="#16121c"/><rect x="3" y="10" width="1" height="1" fill="#9a6a1e"/><rect x="4" y="10" width="1" height="1" fill="#f6d77a"/><rect x="5" y="10" width="3" height="1" fill="#d8a838"/><rect x="8" y="10" width="2" height="1" fill="#f6d77a"/><rect x="10" y="10" width="1" height="1" fill="#16121c"/><rect x="3" y="11" width="1" height="1" fill="#16121c"/><rect x="4" y="11" width="4" height="1" fill="#9a6a1e"/><rect x="8" y="11" width="1" height="1" fill="#f6d77a"/><rect x="9" y="11" width="1" height="1" fill="#16121c"/><rect x="4" y="12" width="5" height="1" fill="#16121c"/></svg>
