<svg xmlns="http://www.w3.org/2000/svg" viewBox="0 0 13 12" width="26" height="24" shape-rendering="crispEdges"><rect x="2" y="0" width="2" height="1" fill="#16121c"/><rect x="1" y="1" width="1" height="1" fill="#16121c"/><rect x="2" y="1" width="1" height="1" fill="#553620"/><rect x="3" y="1" width="1" height="1" fill="#a8743e"/><rect x="4" y="1" width="7" height="1" fill="#16121c"/><rect x="0" y="2" width="1" height="1" fill="#16121c"/><rect x="1" y="2" width="1" height="1" fill="#a8743e"/><rect x="2" y="2" width="1" height="1" fill="#a29e98"/><rect x="3" y="2" width="1" height="1" fill="#dcd8d0"/><rect x="4" y="2" width="1" height="1" fill="#ffffff"/><rect x="5" y="2" width="1" height="1" fill="#a29e98"/><rect x="6" y="2" width="1" height="1" fill="#ffffff"/><rect x="7" y="2" width="1" height="1" fill="#a29e98"/><rect x="8" y="2" width="1" height="1" fill="#ffffff"/><rect x="9" y="2" width="1" height="1" fill="#dcd8d0"/><rect x="10" y="2" width="1" height="1" fill="#ffffff"/><rect x="11" y="2" width="1" height="1" fill="#16121c"/><rect x="1" y="3" width="1" height="1" fill="#16121c"/><rect x="2" y="3" width="1" height="1" fill="#a29e98"/><rect x="3" y="3" width="1" height="1" fill="#ffffff"/><rect x="4" y="3" width="5" height="1" fill="#16121c"/><rect x="9" y="3" width="1" height="1" fill="#a29e98"/><rect x="10" y="3" width="1" height="1" fill="#ffffff"/><rect x="11" y="3" width="1" height="1" fill="#16121c"/><rect x="1" y="4" width="1" height="1" fill="#16121c"/><rect x="2" y="4" width="1" height="1" fill="#a29e98"/><rect x="3" y="4" width="1" height="1" fill="#dcd8d0"/><rect x="4" y="4" width="5" height="1" fill="#a29e98"/><rect x="9" y="4" width="1" height="1" fill="#dcd8d0"/><rect x="10" y="4" width="1" height="1" fill="#ffffff"/><rect x="11" y="4" width="1" height="1" fill="#16121c"/><rect x="1" y="5" width="1" height="1" fill="#16121c"/><rect x="2" y="5" width="1" height="1" fill="#a29e98"/><rect x="3" y="5" width="1" height="1" fill="#ffffff"/><rect x="4" y="5" width="5" height="1" fill="#16121c"/><rect x="9" y="5" width="1" height="1" fill="#a29e98"/><rect x="10" y="5" width="1" height="1" fill="#ffffff"/><rect x="11" y="5" width="1" height="1" fill="#16121c"/><rect x="1" y="6" width="1" height="1" fill="#16121c"/><rect x="2" y="6" width="1" height="1" fill="#a29e98"/><rect x="3" y="6" width="1" height="1" fill="#dcd8d0"/><rect x="4" y="6" width="5" height="1" fill="#a29e98"/><rect x="9" y="6" width="1" height="1" fill="#dcd8d0"/><rect x="10" y="6" width="1" height="1" fill="#ffffff"/><rect x="11" y="6" width="1" height="1" fill="#16121c"/><rect x="1" y="7" width="1" height="1" fill="#16121c"/><rect x="2" y="7" width="1" height="1" fill="#a29e98"/><rect x="3" y="7" width="1" height="1" fill="#ffffff"/><rect x="4" y="7" width="3" height="1" fill="#16121c"/><rect x="7" y="7" width="1" height="1" fill="#681826"/><rect x="8" y="7" width="1" height="1" fill="#d04a3a"/><rect x="9" y="7" width="1" height="1" fill="#a29e98"/><rect x="10" y="7" width="1" height="1" fill="#ffffff"/><rect x="11" y="7" width="1" height="1" fill="#16121c"/><rect x="1" y="8" width="1" height="1" fill="#16121c"/><rect x="2" y="8" width="1" height="1" fill="#a29e98"/><rect x="3" y="8" width="3" height="1" fill="#dcd8d0"/><rect x="6" y="8" width="1" height="1" fill="#ffffff"/><rect x="7" y="8" width="1" height="1" fill="#681826"/><rect x="8" y="8" width="1" height="1" fill="#d04a3a"/><rect x="9" y="8" width="1" height="1" fill="#a29e98"/><rect x="10" y="8" width="1" height="1" fill="#dcd8d0"/><rect x="11" y="8" width="1" height="1" fill="#ffffff"/><rect x="12" y="8" width="1" height="1" fill="#16121c"/><rect x="1" y="9" width="1" height="1" fill="#16121c"/><rect x="2" y="9" width="8" height="1" fill="#a29e98"/><rect x="10" y="9" width="1" height="1" fill="#ffffff"/><rect x="11" y="9" width="1" height="1" fill="#a8743e"/><rect x="12" y="9" width="1" height="1" fill="#16121c"/><rect x="2" y="10" width="7" height="1" fill="#16121c"/><rect x="9" y="10" width="1" height="1" fill="#553620"/><rect x="10" y="10" width="1" height="1" fill="#a8743e"/><rect x="11" y="10" width="1" height="1" fill="#16121c"/><rect x="9" y="11" width="2" height="1" fill="#16121c"/></svg>
